<?xml version="1.0" standalone="no"?>
<!DOCTYPE svg PUBLIC "-//W3C//DTD SVG 1.1//EN" "http://www.w3.org/Graphics/SVG/1.1/DTD/svg11.dtd" >
<svg xmlns="http://www.w3.org/2000/svg" xmlns:xlink="http://www.w3.org/1999/xlink" version="1.1">
<metadata>
Created by FontForge 20201107 at Mon Feb  3 15:50:54 2020
 By 
Copyright (c) 2019 by Graviton. All rights reserved.
</metadata>
<defs>
<font id="NebulosaBlackDisplaySolid" horiz-adv-x="860" >
  <font-face 
    font-family="Nebulosa Display Solid"
    font-weight="400"
    font-stretch="normal"
    units-per-em="1000"
    panose-1="0 0 0 0 0 0 0 0 0 0"
    ascent="756"
    descent="-244"
    x-height="720"
    cap-height="720"
    bbox="20 -180 1221 730"
    underline-thickness="50"
    underline-position="-200"
    unicode-range="U+0020-FB99"
  />
<missing-glyph horiz-adv-x="728" 
d="M364 684q134 0 229 -95t95 -229t-95 -229t-229 -95t-229 95t-95 229t95 229t229 95zM550 216l-144 144l144 144l-42 42l-144 -144l-144 144l-42 -42l144 -144l-144 -144l42 -42l144 144l144 -144z" />
    <glyph glyph-name="graviton" unicode="&#x6b3;" horiz-adv-x="570" arabic-form="medial" 
d="M285 562q-35 0 -59.5 25t-24.5 59t24.5 59t59.5 25t59.5 -25t24.5 -59t-24.5 -59t-59.5 -25zM285 520q101 0 173 -72t72 -173t-72 -173t-173 -72t-173 72t-72 173t72 173t173 72zM397 336v51q0 16 -4.5 27t-11 17t-19.5 8.5t-22 3t-27 0.5h-56q-18 0 -27 -0.5t-22 -3
t-19.5 -8.5t-11 -17t-4.5 -27v-224q0 -16 4.5 -27t11 -17t19.5 -8.5t22 -3t27 -0.5h56q18 0 27 0.5t22 3t19.5 8.5t11 17t4.5 27v126q0 9 -9 9h-103q-9 0 -9 -9v-47q0 -9 9 -9h37v-51q0 -10 -9 -10h-56q-9 0 -9 10v186q0 10 9 10h56q9 0 9 -10v-32q0 -10 10 -10h56q9 0 9 10
z" />
    <glyph glyph-name=".notdef" horiz-adv-x="728" 
d="M364 684q134 0 229 -95t95 -229t-95 -229t-229 -95t-229 95t-95 229t95 229t229 95zM550 216l-144 144l144 144l-42 42l-144 -144l-144 144l-42 -42l144 -144l-144 -144l42 -42l144 144l144 -144z" />
    <glyph glyph-name=".null" horiz-adv-x="0" 
 />
    <glyph glyph-name="nonmarkingreturn" horiz-adv-x="333" 
 />
    <glyph glyph-name="space" unicode=" " horiz-adv-x="360" 
 />
    <glyph glyph-name="A" unicode="A" horiz-adv-x="832" 
d="M476 720l336 -720h-71q-49 0 -71 48l-56 120h-396l-56 -120q-22 -48 -71 -48h-71l336 720h120zM262 264h308l-154 329z" />
    <glyph glyph-name="B" unicode="B" horiz-adv-x="840" 
d="M693 362q97 -35 97 -167q0 -195 -195 -195h-525v720h513q195 0 195 -195q0 -124 -85 -163zM190 624v-216h360q108 0 108 108t-108 108h-360zM562 96q108 0 108 108t-108 108h-372v-216h372z" />
    <glyph glyph-name="C" unicode="C" horiz-adv-x="779" 
d="M696 96q48 0 48 -48v-48h-432q-252 0 -252 252v216q0 252 252 252h420v-48q0 -48 -48 -48h-348q-156 0 -156 -156v-216q0 -156 156 -156h360z" />
    <glyph glyph-name="D" unicode="D" horiz-adv-x="862" 
d="M550 720q252 0 252 -252v-216q0 -252 -252 -252h-480v720h480zM682 252v216q0 156 -156 156h-336v-528h336q156 0 156 156z" />
    <glyph glyph-name="E" unicode="E" horiz-adv-x="804" 
d="M706 96q48 0 48 -48v-48h-684v720h672v-48q0 -48 -48 -48h-504v-216h516v-96h-516v-216h516z" />
    <glyph glyph-name="F" unicode="F" horiz-adv-x="777" 
d="M70 720h672v-48q0 -48 -48 -48h-504v-216h504v-96h-504v-264q0 -48 -48 -48h-72v720z" />
    <glyph glyph-name="G" unicode="G" horiz-adv-x="818" 
d="M696 360h72v-360h-456q-252 0 -252 252v216q0 252 252 252h444v-48q0 -48 -48 -48h-372q-156 0 -156 -156v-216q0 -156 156 -156h312v216q0 48 48 48z" />
    <glyph glyph-name="H" unicode="H" 
d="M718 720h72v-720h-72q-48 0 -48 48v264h-480v-264q0 -48 -48 -48h-72v720h72q48 0 48 -48v-264h480v264q0 48 48 48z" />
    <glyph glyph-name="I" unicode="I" horiz-adv-x="260" 
d="M142 720q48 0 48 -48v-672h-72q-48 0 -48 48v672h72z" />
    <glyph glyph-name="J" unicode="J" horiz-adv-x="789" 
d="M604 672q0 48 48 48h72v-468q0 -252 -252 -252h-180q-252 0 -252 252v108h72q48 0 48 -48v-60q0 -156 156 -156h132q156 0 156 156v420z" />
    <glyph glyph-name="K" unicode="K" horiz-adv-x="837" 
d="M802 720l-302 -360l302 -360h-93q-47 0 -88 48l-221 264h-210v-264q0 -48 -48 -48h-72v720h72q48 0 48 -48v-264h210l221 264q41 48 88 48h93z" />
    <glyph glyph-name="L" unicode="L" horiz-adv-x="738" 
d="M670 96q48 0 48 -48v-48h-648v720h72q48 0 48 -48v-576h480z" />
    <glyph glyph-name="M" unicode="M" horiz-adv-x="956" 
d="M766 720h120v-720h-72q-48 0 -48 48v523l-288 -343l-288 343v-523q0 -48 -48 -48h-72v720h120l288 -343z" />
    <glyph glyph-name="N" unicode="N" 
d="M718 720h72v-720h-120l-480 571v-523q0 -48 -48 -48h-72v720h120l480 -571v523q0 48 48 48z" />
    <glyph glyph-name="O" unicode="O" horiz-adv-x="864" 
d="M552 720q252 0 252 -252v-216q0 -252 -252 -252h-240q-252 0 -252 252v216q0 252 252 252h240zM684 252v216q0 156 -156 156h-192q-156 0 -156 -156v-216q0 -156 156 -156h192q156 0 156 156z" />
    <glyph glyph-name="P" unicode="P" horiz-adv-x="801" 
d="M562 720q204 0 204 -204t-204 -204h-372v-264q0 -48 -48 -48h-72v720h492zM538 408q108 0 108 108t-108 108h-348v-216h348z" />
    <glyph glyph-name="Q" unicode="Q" horiz-adv-x="864" 
d="M552 720q252 0 252 -252v-216q0 -252 -252 -252h-60v-180h-72q-48 0 -48 48v132h-60q-252 0 -252 252v216q0 252 252 252h240zM684 252v216q0 156 -156 156h-192q-156 0 -156 -156v-216q0 -156 156 -156h192q156 0 156 156z" />
    <glyph glyph-name="R" unicode="R" horiz-adv-x="816" 
d="M541 312l261 -312h-93q-47 0 -88 48l-221 264h-210v-264q0 -48 -48 -48h-72v720h492q204 0 204 -204t-204 -204h-21zM190 408h348q108 0 108 108t-108 108h-348v-216z" />
    <glyph glyph-name="S" unicode="S" horiz-adv-x="820" 
d="M566 408q204 0 204 -204t-204 -204h-504v48q0 48 48 48h432q108 0 108 108t-108 108h-288q-204 0 -204 204t204 204h492v-48q0 -48 -48 -48h-420q-108 0 -108 -108t108 -108h288z" />
    <glyph glyph-name="T" unicode="T" horiz-adv-x="784" 
d="M20 720h744v-48q0 -48 -48 -48h-264v-624h-120v624h-264q-48 0 -48 48v48z" />
    <glyph glyph-name="U" unicode="U" horiz-adv-x="862" 
d="M725 720h72v-468q0 -252 -252 -252h-228q-252 0 -252 252v468h72q48 0 48 -48v-420q0 -156 156 -156h180q156 0 156 156v420q0 48 48 48z" />
    <glyph glyph-name="V" unicode="V" horiz-adv-x="832" 
d="M741 720h71l-336 -720h-120l-336 720h71q49 0 71 -48l254 -545l254 545q22 48 71 48z" />
    <glyph glyph-name="W" unicode="W" horiz-adv-x="1256" 
d="M1154 720h67l-264 -720h-120l-209 570l-209 -570h-120l-264 720h67q48 0 66 -48l191 -522l209 570h120l209 -570l191 522q18 48 66 48z" />
    <glyph glyph-name="X" unicode="X" horiz-adv-x="814" 
d="M779 720l-302 -360l302 -360h-93q-48 0 -88 48l-191 228l-191 -228q-40 -48 -88 -48h-93l302 360l-302 360h93q48 0 88 -48l191 -228l191 228q40 48 88 48h93z" />
    <glyph glyph-name="Y" unicode="Y" horiz-adv-x="808" 
d="M702 720h86l-324 -444v-276h-120v276l-324 444h86q47 0 83 -48l215 -295l215 295q36 48 83 48z" />
    <glyph glyph-name="Z" unicode="Z" horiz-adv-x="814" 
d="M719 96q48 0 48 -48v-48h-732l523 624h-451q-48 0 -48 48v48h720l-523 -624h463z" />
    <glyph glyph-name="a" unicode="a" horiz-adv-x="832" 
d="M476 720l336 -720h-71q-49 0 -71 48l-56 120h-396l-56 -120q-22 -48 -71 -48h-71l336 720h120zM262 264h308l-154 329z" />
    <glyph glyph-name="b" unicode="b" horiz-adv-x="840" 
d="M693 362q97 -35 97 -167q0 -195 -195 -195h-525v720h513q195 0 195 -195q0 -124 -85 -163zM190 624v-216h360q108 0 108 108t-108 108h-360zM562 96q108 0 108 108t-108 108h-372v-216h372z" />
    <glyph glyph-name="c" unicode="c" horiz-adv-x="779" 
d="M696 96q48 0 48 -48v-48h-432q-252 0 -252 252v216q0 252 252 252h420v-48q0 -48 -48 -48h-348q-156 0 -156 -156v-216q0 -156 156 -156h360z" />
    <glyph glyph-name="d" unicode="d" horiz-adv-x="862" 
d="M550 720q252 0 252 -252v-216q0 -252 -252 -252h-480v720h480zM682 252v216q0 156 -156 156h-336v-528h336q156 0 156 156z" />
    <glyph glyph-name="e" unicode="e" horiz-adv-x="804" 
d="M706 96q48 0 48 -48v-48h-684v720h672v-48q0 -48 -48 -48h-504v-216h516v-96h-516v-216h516z" />
    <glyph glyph-name="f" unicode="f" horiz-adv-x="777" 
d="M70 720h672v-48q0 -48 -48 -48h-504v-216h504v-96h-504v-264q0 -48 -48 -48h-72v720z" />
    <glyph glyph-name="g" unicode="g" horiz-adv-x="818" 
d="M696 360h72v-360h-456q-252 0 -252 252v216q0 252 252 252h444v-48q0 -48 -48 -48h-372q-156 0 -156 -156v-216q0 -156 156 -156h312v216q0 48 48 48z" />
    <glyph glyph-name="h" unicode="h" 
d="M718 720h72v-720h-72q-48 0 -48 48v264h-480v-264q0 -48 -48 -48h-72v720h72q48 0 48 -48v-264h480v264q0 48 48 48z" />
    <glyph glyph-name="i" unicode="i" horiz-adv-x="260" 
d="M142 720q48 0 48 -48v-672h-72q-48 0 -48 48v672h72z" />
    <glyph glyph-name="j" unicode="j" horiz-adv-x="789" 
d="M604 672q0 48 48 48h72v-468q0 -252 -252 -252h-180q-252 0 -252 252v108h72q48 0 48 -48v-60q0 -156 156 -156h132q156 0 156 156v420z" />
    <glyph glyph-name="k" unicode="k" horiz-adv-x="837" 
d="M802 720l-302 -360l302 -360h-93q-47 0 -88 48l-221 264h-210v-264q0 -48 -48 -48h-72v720h72q48 0 48 -48v-264h210l221 264q41 48 88 48h93z" />
    <glyph glyph-name="l" unicode="l" horiz-adv-x="738" 
d="M670 96q48 0 48 -48v-48h-648v720h72q48 0 48 -48v-576h480z" />
    <glyph glyph-name="m" unicode="m" horiz-adv-x="956" 
d="M766 720h120v-720h-72q-48 0 -48 48v523l-288 -343l-288 343v-523q0 -48 -48 -48h-72v720h120l288 -343z" />
    <glyph glyph-name="n" unicode="n" 
d="M718 720h72v-720h-120l-480 571v-523q0 -48 -48 -48h-72v720h120l480 -571v523q0 48 48 48z" />
    <glyph glyph-name="o" unicode="o" horiz-adv-x="864" 
d="M552 720q252 0 252 -252v-216q0 -252 -252 -252h-240q-252 0 -252 252v216q0 252 252 252h240zM684 252v216q0 156 -156 156h-192q-156 0 -156 -156v-216q0 -156 156 -156h192q156 0 156 156z" />
    <glyph glyph-name="p" unicode="p" horiz-adv-x="801" 
d="M562 720q204 0 204 -204t-204 -204h-372v-264q0 -48 -48 -48h-72v720h492zM538 408q108 0 108 108t-108 108h-348v-216h348z" />
    <glyph glyph-name="q" unicode="q" horiz-adv-x="864" 
d="M552 720q252 0 252 -252v-216q0 -252 -252 -252h-60v-180h-72q-48 0 -48 48v132h-60q-252 0 -252 252v216q0 252 252 252h240zM684 252v216q0 156 -156 156h-192q-156 0 -156 -156v-216q0 -156 156 -156h192q156 0 156 156z" />
    <glyph glyph-name="r" unicode="r" horiz-adv-x="816" 
d="M541 312l261 -312h-93q-47 0 -88 48l-221 264h-210v-264q0 -48 -48 -48h-72v720h492q204 0 204 -204t-204 -204h-21zM190 408h348q108 0 108 108t-108 108h-348v-216z" />
    <glyph glyph-name="s" unicode="s" horiz-adv-x="820" 
d="M566 408q204 0 204 -204t-204 -204h-504v48q0 48 48 48h432q108 0 108 108t-108 108h-288q-204 0 -204 204t204 204h492v-48q0 -48 -48 -48h-420q-108 0 -108 -108t108 -108h288z" />
    <glyph glyph-name="t" unicode="t" horiz-adv-x="784" 
d="M20 720h744v-48q0 -48 -48 -48h-264v-624h-120v624h-264q-48 0 -48 48v48z" />
    <glyph glyph-name="u" unicode="u" horiz-adv-x="862" 
d="M725 720h72v-468q0 -252 -252 -252h-228q-252 0 -252 252v468h72q48 0 48 -48v-420q0 -156 156 -156h180q156 0 156 156v420q0 48 48 48z" />
    <glyph glyph-name="v" unicode="v" horiz-adv-x="832" 
d="M741 720h71l-336 -720h-120l-336 720h71q49 0 71 -48l254 -545l254 545q22 48 71 48z" />
    <glyph glyph-name="w" unicode="w" horiz-adv-x="1256" 
d="M1154 720h67l-264 -720h-120l-209 570l-209 -570h-120l-264 720h67q48 0 66 -48l191 -522l209 570h120l209 -570l191 522q18 48 66 48z" />
    <glyph glyph-name="x" unicode="x" horiz-adv-x="814" 
d="M779 720l-302 -360l302 -360h-93q-48 0 -88 48l-191 228l-191 -228q-40 -48 -88 -48h-93l302 360l-302 360h93q48 0 88 -48l191 -228l191 228q40 48 88 48h93z" />
    <glyph glyph-name="y" unicode="y" horiz-adv-x="808" 
d="M702 720h86l-324 -444v-276h-120v276l-324 444h86q47 0 83 -48l215 -295l215 295q36 48 83 48z" />
    <glyph glyph-name="z" unicode="z" horiz-adv-x="814" 
d="M719 96q48 0 48 -48v-48h-732l523 624h-451q-48 0 -48 48v48h720l-523 -624h463z" />
    <glyph glyph-name="uni00A0" unicode="&#xa0;" horiz-adv-x="360" 
 />
    </font>
</defs>
</svg>
