<svg width="21" height="21" viewBox="0 0 21 21" fill="none" xmlns="http://www.w3.org/2000/svg">
<path fill-rule="evenodd" clip-rule="evenodd" d="M2.5775 4.03458L8.25078 9.71032C9.48814 10.9453 11.5108 10.9464 12.7492 9.71032L18.4225 4.03458C18.4796 3.97745 18.4713 3.88336 18.405 3.83713C17.8263 3.43358 17.1223 3.19434 16.3639 3.19434H4.63608C3.87766 3.19434 3.17362 3.43362 2.59498 3.83713C2.52869 3.88336 2.52037 3.97745 2.5775 4.03458ZM1.0614 6.76897C1.0614 6.1726 1.20926 5.60913 1.46971 5.11387C1.51044 5.03639 1.61368 5.02072 1.67557 5.08261L7.27703 10.6841C9.05084 12.4605 11.9481 12.4615 13.723 10.6841L19.3244 5.08261C19.3863 5.02072 19.4896 5.03639 19.5303 5.11387C19.7907 5.60913 19.9386 6.17264 19.9386 6.76897V14.2312C19.9386 16.2038 18.334 17.8059 16.3639 17.8059H4.63608C2.66601 17.8059 1.0614 16.2038 1.0614 14.2312V6.76897Z" fill="white"/>
</svg>
