<svg width="92" height="92" viewBox="0 0 92 92" fill="none" xmlns="http://www.w3.org/2000/svg">
<rect width="92" height="92" fill="#D50A1C"/>
<path d="M46 19.306C37.6948 19.306 30.1636 22.6742 24.693 28.1131C24.6693 28.1339 24.639 28.1411 24.6167 28.1635C24.5944 28.1858 24.5872 28.216 24.5663 28.2398C19.1282 33.7096 15.76 41.2408 15.76 49.546C15.76 56.8511 18.3988 63.9021 23.1933 69.4036C23.7765 70.0754 24.7874 70.1474 25.4606 69.5764L31.78 64.2225C32.4734 63.6386 32.549 62.5939 31.9485 61.9149C28.936 58.4978 27.2786 54.1036 27.2786 49.5453C27.2786 39.222 35.6759 30.8246 45.9993 30.8246C50.2962 30.8246 54.496 32.3179 57.8202 35.0265C59.4741 36.3765 61.5282 33.8702 59.8665 32.5166C56.3853 29.6776 52.0869 27.9878 47.6193 27.6551V22.6274C61.7529 23.4727 73 35.2051 73 49.546C73 55.5242 71.0193 61.3166 67.3912 66.0225L63.5334 62.7696C66.3998 58.973 67.9607 54.3383 67.9607 49.546C67.9607 47.4155 67.6547 45.306 67.0514 43.2748C66.4336 41.2063 63.3412 42.1632 63.946 44.1986C64.4586 45.928 64.72 47.7273 64.72 49.546C64.72 54.1022 63.064 58.4942 60.0559 61.9091C59.459 62.5838 59.5259 63.6285 60.2265 64.2189L66.5567 69.5577C67.2321 70.1294 68.2444 70.0495 68.8218 69.3827C73.6055 63.8855 76.24 56.8403 76.24 49.546C76.24 32.8715 62.6745 19.306 46 19.306ZM31.6792 32.9327L28.1174 29.3716C32.5058 25.4772 38.157 22.9996 44.38 22.6274V27.6667C39.5438 28.0231 35.1438 29.9419 31.6792 32.9327ZM28.4752 62.7782L24.6232 66.0412C21.3162 61.7579 19.3917 56.5718 19.067 51.166H24.1055C24.4166 55.3787 25.9293 59.4086 28.4752 62.7782ZM24.1214 47.926H19.0821C19.4543 41.7024 21.9319 36.0511 25.8263 31.6627L29.3882 35.2231C26.3966 38.6884 24.4771 43.0891 24.1214 47.926Z" fill="white"/>
<path d="M49.6662 57.7915C51.1912 56.2644 63.8099 39.718 65.2442 37.8367C66.353 36.3808 64.5537 34.4988 63.0568 35.5082C59.8038 37.6747 43.4966 48.5654 41.9673 50.0947C39.8454 52.2165 39.8454 55.6696 41.9673 57.7915C44.0848 59.909 47.5394 59.9176 49.6662 57.7915ZM44.2576 52.385C44.9661 51.6866 50.729 47.7172 56.6776 43.6924C52.2986 49.3833 48.0822 54.792 47.3752 55.5004C45.3138 57.5625 42.1955 54.4471 44.2576 52.385Z" fill="white"/>
<path d="M40.425 66.556H51.575C53.7191 66.556 53.7191 63.316 51.575 63.316H40.425C38.2809 63.316 38.2809 66.556 40.425 66.556Z" fill="white"/>
<path d="M59.6354 69.454H32.3654C30.2212 69.454 30.2212 72.694 32.3654 72.694H59.6354C61.7788 72.694 61.7788 69.454 59.6354 69.454Z" fill="white"/>
<path d="M46 19.306C37.6948 19.306 30.1636 22.6742 24.693 28.1131C24.6693 28.1339 24.639 28.1411 24.6167 28.1635C24.5944 28.1858 24.5872 28.216 24.5663 28.2398C19.1282 33.7096 15.76 41.2408 15.76 49.546C15.76 56.8511 18.3988 63.9021 23.1933 69.4036C23.7765 70.0754 24.7874 70.1474 25.4606 69.5764L31.78 64.2225C32.4734 63.6386 32.549 62.5939 31.9485 61.9149C28.936 58.4978 27.2786 54.1036 27.2786 49.5453C27.2786 39.222 35.6759 30.8246 45.9993 30.8246C50.2962 30.8246 54.496 32.3179 57.8202 35.0265C59.4741 36.3765 61.5282 33.8702 59.8665 32.5166C56.3853 29.6776 52.0869 27.9878 47.6193 27.6551V22.6274C61.7529 23.4727 73 35.2051 73 49.546C73 55.5242 71.0193 61.3166 67.3912 66.0225L63.5334 62.7696C66.3998 58.973 67.9607 54.3383 67.9607 49.546C67.9607 47.4155 67.6547 45.306 67.0514 43.2748C66.4336 41.2063 63.3412 42.1632 63.946 44.1986C64.4586 45.928 64.72 47.7273 64.72 49.546C64.72 54.1022 63.064 58.4942 60.0559 61.9091C59.459 62.5838 59.5259 63.6285 60.2265 64.2189L66.5567 69.5577C67.2321 70.1294 68.2444 70.0495 68.8218 69.3827C73.6055 63.8855 76.24 56.8403 76.24 49.546C76.24 32.8715 62.6745 19.306 46 19.306ZM31.6792 32.9327L28.1174 29.3716C32.5058 25.4772 38.157 22.9996 44.38 22.6274V27.6667C39.5438 28.0231 35.1438 29.9419 31.6792 32.9327ZM28.4752 62.7782L24.6232 66.0412C21.3162 61.7579 19.3917 56.5718 19.067 51.166H24.1055C24.4166 55.3787 25.9293 59.4086 28.4752 62.7782ZM24.1214 47.926H19.0821C19.4543 41.7024 21.9319 36.0511 25.8263 31.6627L29.3882 35.2231C26.3966 38.6884 24.4771 43.0891 24.1214 47.926Z" stroke="#D50A1C"/>
<path d="M49.6662 57.7915C51.1912 56.2644 63.8099 39.718 65.2442 37.8367C66.353 36.3808 64.5537 34.4988 63.0568 35.5082C59.8038 37.6747 43.4966 48.5654 41.9673 50.0947C39.8454 52.2165 39.8454 55.6696 41.9673 57.7915C44.0848 59.909 47.5394 59.9176 49.6662 57.7915ZM44.2576 52.385C44.9661 51.6866 50.729 47.7172 56.6776 43.6924C52.2986 49.3833 48.0822 54.792 47.3752 55.5004C45.3138 57.5625 42.1955 54.4471 44.2576 52.385Z" stroke="#D50A1C"/>
<path d="M40.425 66.556H51.575C53.7191 66.556 53.7191 63.316 51.575 63.316H40.425C38.2809 63.316 38.2809 66.556 40.425 66.556Z" stroke="#D50A1C"/>
<path d="M59.6354 69.454H32.3654C30.2212 69.454 30.2212 72.694 32.3654 72.694H59.6354C61.7788 72.694 61.7788 69.454 59.6354 69.454Z" stroke="#D50A1C"/>
</svg>
